<svg width="550" height="160" viewBox="0 0 550 160" xmlns="http://www.w3.org/2000/svg">
    <defs>
        <filter id="glow" x="-100%" y="-100%" width="300%" height="300%">
            <!--    <filter id="glow" x="-50%" y="-50%" width="200%" height="200%">-->
            <feGaussianBlur stdDeviation="14" result="coloredBlur"/>
            <feMerge>
                <feMergeNode in="coloredBlur"/>
                <feMergeNode in="SourceGraphic"/>
            </feMerge>
        </filter>
    </defs>

<!--    <rect width="550" height="160" fill="white" />-->

    <g transform="scale(0.8) translate(-150,-150)">
        <!-- top left chip -->
        <g transform="translate(135, 155)">
            <rect x="87.5" y="20" width="5" height="10" fill="#0055aa" filter="url(#glow)"/>
            <rect x="102.5" y="20" width="5" height="10" fill="#0055aa" filter="url(#glow)"/>
            <rect x="117.5" y="20" width="5" height="10" fill="#0055aa" filter="url(#glow)"/>
            <rect x="132" y="20" width="5" height="10" fill="#0055aa" filter="url(#glow)"/>
            <rect x="147" y="20" width="5" height="10" fill="#0055aa" filter="url(#glow)"/>

            <rect x="30" y="40" width="20" height="90" fill="none" stroke="#0055aa" stroke-width="2" filter="url(#glow)"/>
            <rect x="45" y="51" width="20" height="5" fill="#0055aa" filter="url(#glow)"/>
            <rect x="40" y="50" width="5" height="8" fill="none" stroke="#0055aa" stroke-width="2" filter="url(#glow)"/>
            <rect x="45" y="65.5" width="20" height="5" fill="#0055aa" filter="url(#glow)"/>
            <rect x="40" y="64" width="5" height="8" fill="none" stroke="#0055aa" stroke-width="2" filter="url(#glow)"/>
            <rect x="45" y="80" width="20" height="5" fill="#0055aa" filter="url(#glow)"/>
            <rect x="40" y="78.5" width="5" height="8" fill="none" stroke="#0055aa" stroke-width="2" filter="url(#glow)"/>
            <rect x="45" y="95" width="20" height="5" fill="#0055aa" filter="url(#glow)"/>
            <rect x="40" y="94" width="5" height="8" fill="none" stroke="#0055aa" stroke-width="2" filter="url(#glow)"/>
            <rect x="45" y="110" width="20" height="5" fill="#0055aa" filter="url(#glow)"/>
            <rect x="40" y="108.5" width="5" height="8" fill="none" stroke="#0055aa" stroke-width="2" filter="url(#glow)"/>

            <rect x="103" y="140" width="5" height="15" fill="#0055aa" filter="url(#glow)"/>
            <circle cx="105.5" cy="160" r="6" stroke="#0055aa" stroke-width="3" fill="none" filter="url(#glow)"/>
            <rect x="87.5" y="140" width="5" height="30" fill="#0055aa" filter="url(#glow)"/>
            <circle cx="90" cy="175" r="6" stroke="#0055aa" stroke-width="3" fill="none" filter="url(#glow)"/>
            <polyline points="90, 145 80, 155 70, 155" fill="none" stroke="#0055aa" stroke-width="5" filter="url(#glow)" />
            <circle cx="65" cy="155" r="6" stroke="#0055aa" stroke-width="3" fill="none" filter="url(#glow)"/>
            <polyline points="120, 140 120, 160 130, 170" fill="none" stroke="#0055aa" stroke-width="5" filter="url(#glow)" />
            <circle cx="135" cy="175" r="6" stroke="#0055aa" stroke-width="3" fill="none" filter="url(#glow)"/>
            <polyline points="135, 140 135, 150 155, 170" fill="none" stroke="#0055aa" stroke-width="5" filter="url(#glow)" />
            <circle cx="160" cy="175" r="6" stroke="#0055aa" stroke-width="3" fill="none" filter="url(#glow)"/>
            <polyline points="150, 140 150, 150 155, 155 650, 155" fill="none" stroke="#0055aa" stroke-width="5" filter="url(#glow)" />
            <circle cx="655" cy="155" r="6" stroke="#0055aa" stroke-width="3" fill="none" filter="url(#glow)"/>
            <polyline points="240, 155 255, 170 300, 170" fill="none" stroke="#0055aa" stroke-width="5" filter="url(#glow)" />
            <circle cx="305" cy="170" r="6" stroke="#0055aa" stroke-width="3" fill="none" filter="url(#glow)"/>
            <polyline points="350, 155 365, 170 500, 170" fill="none" stroke="#0055aa" stroke-width="5" filter="url(#glow)" />
            <circle cx="505" cy="170" r="6" stroke="#0055aa" stroke-width="3" fill="none" filter="url(#glow)"/>

            <polyline points="175, 53.5 195, 53.5 220, 30 240, 30" fill="none" stroke="#0055aa" stroke-width="5" filter="url(#glow)" />
            <circle cx="245" cy="30" r="6" stroke="#0055aa" stroke-width="3" fill="none" filter="url(#glow)"/>
            <polyline points="175, 68 205, 68 230, 45.5 260, 45.5" fill="none" stroke="#0055aa" stroke-width="5" filter="url(#glow)" />
            <circle cx="265" cy="45.5" r="6" stroke="#0055aa" stroke-width="3" fill="none" filter="url(#glow)"/>
            <polyline points="175, 82.5 225, 82.5 235, 90 235, 90 250, 90" fill="none" stroke="#0055aa" stroke-width="5" filter="url(#glow)" />
            <circle cx="255" cy="90" r="6" stroke="#0055aa" stroke-width="3" fill="none" filter="url(#glow)"/>
            <polyline points="210, 82.5 225, 70 235, 70" fill="none" stroke="#0055aa" stroke-width="5" filter="url(#glow)" />
            <circle cx="240" cy="70" r="6" stroke="#0055aa" stroke-width="3" fill="none" filter="url(#glow)"/>
            <polyline points="175, 97.5 210, 97.5 230, 114" fill="none" stroke="#0055aa" stroke-width="5" filter="url(#glow)" />
            <circle cx="235" cy="117" r="6" stroke="#0055aa" stroke-width="3" fill="none" filter="url(#glow)"/>
            <polyline points="175, 112 200, 112 210, 122" fill="none" stroke="#0055aa" stroke-width="5" filter="url(#glow)" />
            <circle cx="215" cy="127" r="6" stroke="#0055aa" stroke-width="3" fill="none" filter="url(#glow)"/>

        </g>


        <g id="square-topleft" transform=" translate(200,185) scale(0.7)">
            <rect x="28" y="28" width="100" height="100" fill="#0055aa" filter="url(#glow)" />
            <rect x="23" y="23" width="110" height="110" fill="none" stroke="#0055aa" stroke-width="2" filter="url(#glow)" />

            <rect x="0" y="27" width="18" height="13" fill="none" stroke="#0055aa" stroke-width="2" filter="url(#glow)" />
            <rect x="0" y="48" width="18" height="13" fill="none" stroke="#0055aa" stroke-width="2" filter="url(#glow)" />
            <rect x="0" y="69" width="18" height="13" fill="none" stroke="#0055aa" stroke-width="2" filter="url(#glow)" />
            <rect x="0" y="90" width="18" height="13" fill="none" stroke="#0055aa" stroke-width="2" filter="url(#glow)" />
            <rect x="0" y="111" width="18" height="13" fill="none" stroke="#0055aa" stroke-width="2" filter="url(#glow)" />

            <rect x="29" y="0" width="13" height="18" fill="none" stroke="#0055aa" stroke-width="2" filter="url(#glow)" />
            <rect x="51" y="0" width="13" height="18" fill="none" stroke="#0055aa" stroke-width="2" filter="url(#glow)" />
            <rect x="72" y="0" width="13" height="18" fill="none" stroke="#0055aa" stroke-width="2" filter="url(#glow)" />
            <rect x="93" y="0" width="13" height="18" fill="none" stroke="#0055aa" stroke-width="2" filter="url(#glow)" />
            <rect x="114" y="0" width="13" height="18" fill="none" stroke="#0055aa" stroke-width="2" filter="url(#glow)" />

            <rect x="138" y="27" width="18" height="13" fill="none" stroke="#0055aa" stroke-width="2" filter="url(#glow)" />
            <rect x="138" y="48" width="18" height="13" fill="none" stroke="#0055aa" stroke-width="2" filter="url(#glow)" />
            <rect x="138" y="69" width="18" height="13" fill="none" stroke="#0055aa" stroke-width="2" filter="url(#glow)" />
            <rect x="138" y="90" width="18" height="13" fill="none" stroke="#0055aa" stroke-width="2" filter="url(#glow)" />
            <rect x="138" y="111" width="18" height="13" fill="none" stroke="#0055aa" stroke-width="2" filter="url(#glow)" />

            <rect x="29" y="138" width="13" height="18" fill="none" stroke="#0055aa" stroke-width="2" filter="url(#glow)" />
            <rect x="51" y="138" width="13" height="18" fill="none" stroke="#0055aa" stroke-width="2" filter="url(#glow)" />
            <rect x="72" y="138" width="13" height="18" fill="none" stroke="#0055aa" stroke-width="2" filter="url(#glow)" />
            <rect x="93" y="138" width="13" height="18" fill="none" stroke="#0055aa" stroke-width="2" filter="url(#glow)" />
            <rect x="114" y="138" width="13" height="18" fill="none" stroke="#0055aa" stroke-width="2" filter="url(#glow)" />

        </g>



    </g>


</svg>
