<svg width="450" height="160" viewBox="0 0 450 160" xmlns="http://www.w3.org/2000/svg">
    <defs>
        <filter id="glow" x="-100%" y="-100%" width="300%" height="300%">
            <!--    <filter id="glow" x="-50%" y="-50%" width="200%" height="200%">-->
            <feGaussianBlur stdDeviation="14" result="coloredBlur"/>
            <feMerge>
                <feMergeNode in="coloredBlur"/>
                <feMergeNode in="SourceGraphic"/>
            </feMerge>
        </filter>
    </defs>

<!--    <rect width="450" height="160" fill="white" />-->

    <g transform="scale(0.8) translate(-1250,-150)">

        <g transform="translate(1584,155)">

            <rect x="87.5" y="20" width="5" height="10" fill="#0055aa" filter="url(#glow)"/>
            <rect x="102.5" y="20" width="5" height="10" fill="#0055aa" filter="url(#glow)"/>
            <rect x="117.5" y="20" width="5" height="10" fill="#0055aa" filter="url(#glow)"/>
            <rect x="132" y="20" width="5" height="10" fill="#0055aa" filter="url(#glow)"/>
            <rect x="147" y="20" width="5" height="10" fill="#0055aa" filter="url(#glow)"/>
        </g>
        <g transform="rotate(180, 0, 0) translate(-1823, -321)">
            <rect x="30" y="40" width="20" height="90" fill="none" stroke="#0055aa" stroke-width="2" filter="url(#glow)"/>
            <rect x="45" y="51.5" width="20" height="5" fill="#0055aa" filter="url(#glow)"/>
            <rect x="40" y="50" width="5" height="8" fill="none" stroke="#0055aa" stroke-width="2" filter="url(#glow)"/>
            <rect x="45" y="66" width="20" height="5" fill="#0055aa" filter="url(#glow)"/>
            <rect x="40" y="64" width="5" height="8" fill="none" stroke="#0055aa" stroke-width="2" filter="url(#glow)"/>
            <rect x="45" y="80.5" width="20" height="5" fill="#0055aa" filter="url(#glow)"/>
            <rect x="40" y="78.5" width="5" height="8" fill="none" stroke="#0055aa" stroke-width="2" filter="url(#glow)"/>
            <rect x="45" y="95.5" width="20" height="5" fill="#0055aa" filter="url(#glow)"/>
            <rect x="40" y="94" width="5" height="8" fill="none" stroke="#0055aa" stroke-width="2" filter="url(#glow)"/>
            <rect x="45" y="110" width="20" height="5" fill="#0055aa" filter="url(#glow)"/>
            <rect x="40" y="108.5" width="5" height="8" fill="none" stroke="#0055aa" stroke-width="2" filter="url(#glow)"/>
        </g>


        <g id="square-topleft" transform=" translate(1649,185) scale(0.7)">
            <rect x="28" y="28" width="100" height="100" fill="#0055aa" filter="url(#glow)" />
            <rect x="23" y="23" width="110" height="110" fill="none" stroke="#0055aa" stroke-width="2" filter="url(#glow)" />

            <rect x="0" y="27" width="18" height="13" fill="none" stroke="#0055aa" stroke-width="2" filter="url(#glow)" />
            <rect x="0" y="48" width="18" height="13" fill="none" stroke="#0055aa" stroke-width="2" filter="url(#glow)" />
            <rect x="0" y="69" width="18" height="13" fill="none" stroke="#0055aa" stroke-width="2" filter="url(#glow)" />
            <rect x="0" y="90" width="18" height="13" fill="none" stroke="#0055aa" stroke-width="2" filter="url(#glow)" />
            <rect x="0" y="111" width="18" height="13" fill="none" stroke="#0055aa" stroke-width="2" filter="url(#glow)" />

            <rect x="29" y="0" width="13" height="18" fill="none" stroke="#0055aa" stroke-width="2" filter="url(#glow)" />
            <rect x="51" y="0" width="13" height="18" fill="none" stroke="#0055aa" stroke-width="2" filter="url(#glow)" />
            <rect x="72" y="0" width="13" height="18" fill="none" stroke="#0055aa" stroke-width="2" filter="url(#glow)" />
            <rect x="93" y="0" width="13" height="18" fill="none" stroke="#0055aa" stroke-width="2" filter="url(#glow)" />
            <rect x="114" y="0" width="13" height="18" fill="none" stroke="#0055aa" stroke-width="2" filter="url(#glow)" />

            <rect x="138" y="27" width="18" height="13" fill="none" stroke="#0055aa" stroke-width="2" filter="url(#glow)" />
            <rect x="138" y="48" width="18" height="13" fill="none" stroke="#0055aa" stroke-width="2" filter="url(#glow)" />
            <rect x="138" y="69" width="18" height="13" fill="none" stroke="#0055aa" stroke-width="2" filter="url(#glow)" />
            <rect x="138" y="90" width="18" height="13" fill="none" stroke="#0055aa" stroke-width="2" filter="url(#glow)" />
            <rect x="138" y="111" width="18" height="13" fill="none" stroke="#0055aa" stroke-width="2" filter="url(#glow)" />

            <rect x="29" y="138" width="13" height="18" fill="none" stroke="#0055aa" stroke-width="2" filter="url(#glow)" />
            <rect x="51" y="138" width="13" height="18" fill="none" stroke="#0055aa" stroke-width="2" filter="url(#glow)" />
            <rect x="72" y="138" width="13" height="18" fill="none" stroke="#0055aa" stroke-width="2" filter="url(#glow)" />
            <rect x="93" y="138" width="13" height="18" fill="none" stroke="#0055aa" stroke-width="2" filter="url(#glow)" />
            <rect x="114" y="138" width="13" height="18" fill="none" stroke="#0055aa" stroke-width="2" filter="url(#glow)" />

        </g>

        <polyline id="right-top-line" points="1650,208.5 1625,208.5 1590,175 1580,175" fill="none" stroke="#0055aa" stroke-width="5" filter="url(#glow)" />
        <circle id="right-top-circle" cx="1575" cy="175" r="6" stroke="#0055aa" stroke-width="3" fill="none" filter="url(#glow)"/>
        <polyline points="1650, 223 1610, 223 1585 200" fill="none" stroke="#0055aa" stroke-width="5" filter="url(#glow)" />
        <circle cx="1580" cy="195" r="6" stroke="#0055aa" stroke-width="3" fill="none" filter="url(#glow)"/>
        <polyline id="right-middle-line" points="1650,237.5 1595,237.5 1580,225" fill="none" stroke="#0055aa" stroke-width="5" filter="url(#glow)" />
        <circle id="right-middle-circle" cx="1575" cy="220" r="6" stroke="#0055aa" stroke-width="3" fill="none" filter="url(#glow)"/>
        <polyline id="right-bottom-line" points="1650,267 1610,267 1590,288 1580,288" fill="none" stroke="#0055aa" stroke-width="5" filter="url(#glow)" />
        <circle id="right-bottom-circle" cx="1575" cy="288" r="6" stroke="#0055aa" stroke-width="3" fill="none" filter="url(#glow)"/>
        <polyline points="1674, 295 1674, 300 1664 310 1480 310" fill="none" stroke="#0055aa" stroke-width="5" filter="url(#glow)" />
        <circle cx="1475" cy="310" r="6" stroke="#0055aa" stroke-width="3" fill="none" filter="url(#glow)"/>
        <polyline points="1600 310 1585 325 1400 325" fill="none" stroke="#0055aa" stroke-width="5" filter="url(#glow)" />
        <circle cx="1395" cy="325" r="6" stroke="#0055aa" stroke-width="3" fill="none" filter="url(#glow)"/>
        <polyline points="1450 325 1440 310 1300 310" fill="none" stroke="#0055aa" stroke-width="5" filter="url(#glow)" />
        <circle cx="1295" cy="310" r="6" stroke="#0055aa" stroke-width="3" fill="none" filter="url(#glow)"/>
        <polyline points="1689.5, 295 1689.5, 310 1674.5 325" fill="none" stroke="#0055aa" stroke-width="5" filter="url(#glow)" />
        <circle cx="1669.5" cy="330" r="6" stroke="#0055aa" stroke-width="3" fill="none" filter="url(#glow)"/>
        <rect x="1701.5" y="295" width="5" height="25" fill="#0055aa" filter="url(#glow)"/>
        <circle cx="1704" cy="325" r="6" stroke="#0055aa" stroke-width="3" fill="none" filter="url(#glow)"/>
        <polyline points="1719, 295 1719, 315 1730 325" fill="none" stroke="#0055aa" stroke-width="5" filter="url(#glow)" />
        <circle cx="1735" cy="330" r="6" stroke="#0055aa" stroke-width="3" fill="none" filter="url(#glow)"/>
        <polyline points="1733.5, 295 1733.5, 305 1748.5 320" fill="none" stroke="#0055aa" stroke-width="5" filter="url(#glow)" />
        <circle cx="1753.5" cy="325" r="6" stroke="#0055aa" stroke-width="3" fill="none" filter="url(#glow)"/>

        <rect x="1590" y="250" width="59" height="5" fill="#0055aa" filter="url(#glow)"/>
        <circle cx="1585" cy="252.5" r="6" stroke="#0055aa" stroke-width="3" fill="none" filter="url(#glow)"/>

    </g>


</svg>
